<svg width="31" height="31" viewBox="0 0 31 31" fill="none" xmlns="http://www.w3.org/2000/svg">
<path d="M0.857349 14.8787C0.91398 14.3048 1.27372 13.7439 1.87771 13.47L2.0013 13.4191L2.0124 13.4151L2.02418 13.4118L22.2884 7.02277L22.3016 7.01948L22.3141 7.0155C22.9103 6.86197 23.485 7.06002 23.8541 7.43883C24.2194 7.814 24.3947 8.38538 24.1714 8.95673L24.1728 8.95675L17.2598 29.0488L17.2584 29.0487C17.0392 29.7554 16.4746 30.1677 15.8586 30.2149C15.2446 30.2618 14.6197 29.9416 14.3084 29.2998L14.3023 29.2879L14.2977 29.2761L10.6324 20.5857L10.5018 20.2753L10.7403 20.0374L13.9371 16.8463L10.1482 19.5332L9.9265 19.6905L9.67368 19.5892L1.81478 16.4519L1.8134 16.4518C1.09856 16.1651 0.795601 15.5049 0.857349 14.8787Z" fill="url(#paint0_linear_17_1365)" stroke="#CFB4DE"/>
<defs>
<linearGradient id="paint0_linear_17_1365" x1="16" y1="10.0001" x2="16" y2="23.0001" gradientUnits="userSpaceOnUse">
<stop stop-color="#3B21B6"/>
<stop offset="1" stop-color="#931FDD"/>
</linearGradient>
</defs>
</svg>
